<?xml version="1.0" standalone="no"?>
<!DOCTYPE svg PUBLIC "-//W3C//DTD SVG 20010904//EN"
 "http://www.w3.org/TR/2001/REC-SVG-20010904/DTD/svg10.dtd">
<svg version="1.0" xmlns="http://www.w3.org/2000/svg"
 width="700.000000pt" height="700.000000pt" viewBox="0 0 700.000000 700.000000"
 preserveAspectRatio="xMidYMid meet">
<metadata>
Created by potrace 1.14, written by Peter Selinger 2001-2017
</metadata>
<g transform="translate(0.000000,700.000000) scale(0.100000,-0.100000)"
fill="#000000" stroke="none">
<path d="M3370 5388 c-470 -40 -873 -391 -974 -849 -68 -305 -5 -625 172 -874
110 -155 264 -286 426 -360 314 -145 650 -143 953 6 416 204 662 651 609 1104
-70 595 -591 1023 -1186 973z"/>
<path d="M543 4286 c-9 -14 -1 -228 12 -311 3 -16 7 -52 10 -80 14 -130 63
-341 118 -505 17 -52 32 -97 32 -100 1 -3 7 -18 14 -35 7 -16 24 -59 38 -95
60 -152 214 -427 325 -578 92 -125 191 -241 309 -361 245 -249 602 -489 936
-627 84 -35 271 -102 303 -109 8 -2 49 -13 90 -24 41 -11 93 -23 115 -27 22
-3 43 -8 46 -10 6 -3 16 -5 109 -19 25 -4 52 -9 60 -10 19 -4 123 -15 186 -20
62 -6 386 -6 439 0 232 24 317 38 491 80 362 89 704 251 1018 479 113 83 141
106 245 201 422 386 716 878 866 1445 13 49 54 264 60 310 3 30 8 71 10 90 10
71 19 258 16 305 -1 10 -1445 15 -1454 5 -2 -3 -7 -45 -11 -95 -43 -575 -409
-1063 -956 -1275 -157 -60 -340 -89 -535 -85 -82 2 -161 6 -175 9 -254 47
-425 113 -607 235 -327 219 -571 590 -627 956 -3 22 -8 53 -11 68 -5 25 -12
108 -14 172 -1 20 -8 20 -727 20 -399 0 -728 -4 -731 -9z"/>
</g>
</svg>
